<svg id="Layer_1" data-name="Layer 1" xmlns="http://www.w3.org/2000/svg" viewBox="0 0 778.49 403.92">
  <defs>
    <style>
      .cls-1 {
        fill: #fff;
      }
    </style>
  </defs>
  <g>
    <path class="cls-1" d="M266.7,420.65h42.79V540.36c0,53.73-25.82,72.66-67.36,72.66-10,0-22.88-1.57-31.33-4.52l4.8-34.44a75.69,75.69,0,0,0,21.84,3.29c17.95,0,29.26-8.05,29.26-37.49Z" transform="translate(-168.26 -285)"/>
    <path class="cls-1" d="M387.71,420.65V529.51c0,32.7,12.57,49.38,34.29,49.38,22.49,0,34.84-15.85,34.84-49.38V420.65h42.79V526.87c0,58.4-29.52,86.15-79.06,86.15-47.78,0-75.66-26.5-75.66-86.66V420.65Z" transform="translate(-168.26 -285)"/>
    <path class="cls-1" d="M763.62,423.16c13.17-2.21,31.71-4,57.77-4,26.27,0,45.25,5.11,57.93,15.29,12.11,9.4,20.07,25.21,20.07,43.77s-6,34.36-17.28,44.82c-14.63,13.74-36.43,20.08-61.48,20.08a100,100,0,0,1-14.6-1v67.77H763.62ZM806,509a65.36,65.36,0,0,0,14.21,1.13c22.73,0,36.76-11.5,36.76-30.68,0-17.43-11.92-27.79-33.49-27.79-8.46,0-14.36.69-17.48,1.41Z" transform="translate(-168.26 -285)"/>
  </g>
  <path class="cls-1" d="M654.31,403.56h0a46,46,0,0,1,2.16,47.18L624.55,510l79.05-7.15a26.27,26.27,0,0,1,24.26,11.64h0a26.27,26.27,0,0,1-2.17,31.87L656.94,624.5h0a46.57,46.57,0,0,1,3.76-56.37L689,535.8,619.3,542a27.14,27.14,0,0,1-25-12h0A27.14,27.14,0,0,1,593,502.15l33-61.42-40.72,13.16A47.26,47.26,0,0,1,531.34,435h0l110.52-35.83A10.9,10.9,0,0,1,654.31,403.56Z" transform="translate(-168.26 -285)"/>
  <circle class="cls-1" cx="480.26" cy="73.2" r="32.29"/>
  <path class="cls-1" d="M502,679.82H222.48a45.55,45.55,0,0,1-45.55-45.55v-295a45.55,45.55,0,0,1,45.55-45.55h670a45.55,45.55,0,0,1,45.55,45.55h0a4,4,0,0,0,4,4h.61a4,4,0,0,0,4-4h0A54.22,54.22,0,0,0,892.52,285h-670a54.22,54.22,0,0,0-54.22,54.23v295a54.22,54.22,0,0,0,54.22,54.23H502a4,4,0,0,0,4-4v-.61A4,4,0,0,0,502,679.82Z" transform="translate(-168.26 -285)"/>
  <g>
    <path class="cls-1" d="M529.71,670.33h2.34v12c0,4.79-2.34,6.26-5.44,6.26a7.74,7.74,0,0,1-2.49-.42l.34-1.9a5.58,5.58,0,0,0,2,.34c2.07,0,3.28-.94,3.28-4.46Z" transform="translate(-168.26 -285)"/>
    <path class="cls-1" d="M564.9,670.33V681c0,4,1.77,5.71,4.2,5.71,2.65,0,4.37-1.76,4.37-5.71V670.33h2.33v10.49c0,5.52-2.9,7.78-6.8,7.78-3.67,0-6.44-2.1-6.44-7.68V670.33Z" transform="translate(-168.26 -285)"/>
    <path class="cls-1" d="M621.64,680.41c-.14-2.5-.31-5.53-.29-7.75h-.07q-.93,3.12-2.26,6.81l-3.18,8.72h-1.75l-2.93-8.56c-.86-2.54-1.56-4.84-2.06-7H609c-.07,2.24-.18,5.23-.36,7.93l-.47,7.71H606l1.25-18h3l3.06,8.7c.74,2.2,1.34,4.18,1.81,6.05h.07c.47-1.82,1.1-3.8,1.9-6.05l3.21-8.7h3l1.11,18h-2.28Z" transform="translate(-168.26 -285)"/>
    <path class="cls-1" d="M654.58,670.54a26.44,26.44,0,0,1,4.46-.35,7.36,7.36,0,0,1,5,1.49,4.87,4.87,0,0,1,1.58,3.76,5.29,5.29,0,0,1-1.39,3.85,7.42,7.42,0,0,1-5.5,2,7.72,7.72,0,0,1-1.88-.17v7.21h-2.31Zm2.31,8.66a7.16,7.16,0,0,0,1.93.21c2.82,0,4.52-1.39,4.52-3.84s-1.7-3.55-4.25-3.55a11,11,0,0,0-2.2.19Z" transform="translate(-168.26 -285)"/>
    <path class="cls-1" d="M727.45,685.47a8.09,8.09,0,0,0,4.15,1.17c2.37,0,3.77-1.24,3.77-3.06s-1-2.65-3.4-3.56c-2.93-1-4.75-2.58-4.75-5.1,0-2.8,2.32-4.87,5.82-4.87a8.21,8.21,0,0,1,4,.87l-.65,1.9A6.81,6.81,0,0,0,733,672c-2.47,0-3.41,1.47-3.41,2.69,0,1.67,1.1,2.5,3.58,3.45,3.05,1.2,4.58,2.66,4.58,5.3s-2,5.18-6.29,5.18a9.2,9.2,0,0,1-4.59-1.17Z" transform="translate(-168.26 -285)"/>
    <path class="cls-1" d="M771,672.29h-5.48v-2h13.31v2h-5.5v16H771Z" transform="translate(-168.26 -285)"/>
    <path class="cls-1" d="M839.81,670.57a25.24,25.24,0,0,1,4.46-.38c2.47,0,4.09.47,5.21,1.48a4.47,4.47,0,0,1,1.41,3.41,4.73,4.73,0,0,1-3.39,4.58v.07c1.38.48,2.2,1.78,2.64,3.64a30.56,30.56,0,0,0,1.38,4.93h-2.41a24.76,24.76,0,0,1-1.18-4.3c-.53-2.46-1.5-3.42-3.6-3.49h-2.2v7.79h-2.32Zm2.32,8.19h2.37c2.49,0,4.06-1.36,4.06-3.42,0-2.33-1.68-3.35-4.13-3.35a10.28,10.28,0,0,0-2.3.2Z" transform="translate(-168.26 -285)"/>
    <path class="cls-1" d="M880.52,685.47a8.11,8.11,0,0,0,4.15,1.17c2.37,0,3.77-1.24,3.77-3.06s-1-2.65-3.4-3.56c-2.93-1-4.75-2.58-4.75-5.1,0-2.8,2.32-4.87,5.82-4.87a8.18,8.18,0,0,1,4,.87l-.65,1.9A6.78,6.78,0,0,0,886,672c-2.47,0-3.4,1.47-3.4,2.69,0,1.67,1.09,2.5,3.57,3.45,3,1.2,4.59,2.66,4.59,5.3s-2,5.18-6.3,5.18a9.2,9.2,0,0,1-4.59-1.17Z" transform="translate(-168.26 -285)"/>
  </g>
  <polygon class="cls-1" points="639.74 370.56 645.16 381.54 657.28 383.3 648.51 391.85 650.58 403.92 639.74 398.22 628.91 403.92 630.98 391.85 622.21 383.3 634.33 381.54 639.74 370.56"/>
</svg>
