<svg id="Layer_1" data-name="Layer 1" xmlns="http://www.w3.org/2000/svg" viewBox="0 0 100 100"><defs><style>.cls-1{fill:#fff;}</style></defs><path class="cls-1" d="M750.79,478.36a50,50,0,1,0,50,50A50,50,0,0,0,750.79,478.36Zm-14.46,69.58H726.16V515.29h10.17Zm-5.17-36.64a5,5,0,0,1-5.28-5.07c0-2.91,2.11-5.09,5.37-5.09a5,5,0,0,1,5.37,5.09C736.63,509.05,734.54,511.3,731.16,511.3Zm44.28,36.64H765.27V529.85c0-4.21-1.5-7.09-5.16-7.09a5.49,5.49,0,0,0-5.15,3.83,7.28,7.28,0,0,0-.35,2.51v18.84H744.44V525.72c0-4.07-.13-7.5-.27-10.43H753l.47,4.52h.21a11.83,11.83,0,0,1,10.09-5.25c6.67,0,11.69,4.44,11.69,14.05Z" transform="translate(-700.79 -478.36)"/></svg>